<mxfile host="app.diagrams.net" modified="2024-06-27T14:44:59.771Z" agent="Mozilla/5.0 (Macintosh; Intel Mac OS X 10_15_7) AppleWebKit/537.36 (KHTML, like Gecko) Chrome/126.0.0.0 Safari/537.36" version="24.6.3" etag="YrCfJ7w1hCzsfWqb1eOU" type="github">
  <diagram name="第 1 页" id="bSZ4kjXhD5KgYWx7e9Dj">
    <mxGraphModel>
      <root>
        <mxCell id="0" />
        <mxCell id="1" parent="0" />
      </root>
    </mxGraphModel>
  </diagram>
</mxfile>
